{"title":"The.Door.2012.DVDRip.AC3.HORiZON-ArtSubs","uid":7927913,"size":734349312,"categoryP":"video","categoryS":"movies","magnet":"?xt=urn:btih:28bc239b9c7b7a4ccef1eef912e8d9aa68fb52bb&amp;dn=The.Door.2012.DVDRip.AC3.HORiZON-ArtSubs&amp;tr=udp%3A%2F%2Ftracker.openbittorrent.com%3A80&amp;tr=udp%3A%2F%2Fopen.demonii.com%3A1337&amp;tr=udp%3A%2F%2Ftracker.coppersurfer.tk%3A6969&amp;tr=udp%3A%2F%2Fexodus.desync.com%3A6969","seeders":2,"leechers":0,"uploader":"lletaif","files":1,"time":1355629166,"description":"Title: The Door\n\nCountry: UK, Germany, Hungary, 2012\n\nLanguage: English\n\nDirector: Istvan Szabo\n\nWriters: Istvan Szabo (screenplay), Andrea Veszits (screenplay)\n\nStars: Helen Mirren, Martina Gedeck and Karoly Eperjes\n\nPlot: This is a story of a special relationship between two women, a writer and her maid.\n\n\nImdb: &lt;a href=&quot;\nhttp://www.imdb.com/title/tt1194577/&quot; rel=&quot;nofollow&quot; target=&quot;_NEW&quot;&gt;\nhttp://www.imdb.com/title/tt1194577/&lt;/a&gt;\n\nRip Specs:\nGeneral\nComplete name                    : The.Door.2012.DVDRip.AC3.HORiZON-ArtSubs\nFormat                           : AVI\nFormat/Info                      : Audio Video Interleave\nFile size                        : 700 MiB\nDuration                         : 1h 34mn\nOverall bit rate                 : 1 040 Kbps\n\nVideo\nID                               : 0\nFormat                           : MPEG-4 Visual\nFormat profile                   : Advanced Simple@L5\nFormat settings, BVOP            : 1\nFormat settings, QPel            : No\nFormat settings, GMC             : No warppoints\nFormat settings, Matrix          : Custom\nCodec ID                         : XVID\nCodec ID/Hint                    : XviD\nDuration                         : 1h 34mn\nBit rate                         : 913 Kbps\nWidth                            : 640 pixels\nHeight                           : 352 pixels\nDisplay aspect ratio             : 16:9\nFrame rate                       : 25.000 fps\nColor space                      : YUV\nChroma subsampling               : 4:2:0\nBit depth                        : 8 bits\nScan type                        : Progressive\nCompression mode                 : Lossy\nBits/(Pixel*Frame)               : 0.162\nStream size                      : 614 MiB (88%)\nWriting library                  : XviD 64\n\nAudio\nID                               : 1\nFormat                           : MPEG Audio\nFormat version                   : Version 1\nFormat profile                   : Layer 3\nMode                             : Joint stereo\nMode extension                   : MS Stereo\nCodec ID                         : 55\nCodec ID/Hint                    : MP3\nDuration                         : 1h 34mn\nBit rate mode                    : Variable\nBit rate                         : 115 Kbps\nNominal bit rate                 : 128 Kbps\nChannel(s)                       : 2 channels\nSampling rate                    : 48.0 KHz\nCompression mode                 : Lossy\nDelay relative to video          : 6s 960ms\nStream size                      : 77.3 MiB (11%)\nAlignment                        : Split accross interleaves\nInterleave, duration             : 24 ms (0.60 video frame)\nInterleave, preload duration     : 1689 ms\nWriting library                  : LAME3.98r\nEncoding settings                : -m j -V 4 -q 2 -lowpass 17 --abr 128\nLanguage                         : English\n\n","torrent":{"xt":"urn:btih:28bc239b9c7b7a4ccef1eef912e8d9aa68fb52bb","amp;dn":"The.Door.2012.DVDRip.AC3.HORiZON-ArtSubs","amp;tr":["udp%3A%2F%2Ftracker.openbittorrent.com%3A80","udp%3A%2F%2Fopen.demonii.com%3A1337","udp%3A%2F%2Ftracker.coppersurfer.tk%3A6969","udp%3A%2F%2Fexodus.desync.com%3A6969"],"infoHash":"28bc239b9c7b7a4ccef1eef912e8d9aa68fb52bb","infoHashBuffer":{"type":"Buffer","data":[40,188,35,155,156,123,122,76,206,241,238,249,18,232,217,170,104,251,82,187]},"announce":[],"urlList":[]}}